<?xml version="1.0" standalone="no"?>
<!DOCTYPE svg PUBLIC "-//W3C//DTD SVG 20010904//EN"
 "http://www.w3.org/TR/2001/REC-SVG-20010904/DTD/svg10.dtd">
<svg version="1.0" xmlns="http://www.w3.org/2000/svg"
 width="1470.000000pt" height="1470.000000pt" viewBox="0 0 1470.000000 1470.000000"
 preserveAspectRatio="xMidYMid meet">
<metadata>
Created by potrace 1.14, written by Peter Selinger 2001-2017
</metadata>
<g transform="translate(0.000000,1470.000000) scale(0.100000,-0.100000)"
fill="#000000" stroke="none">
<path d="M7165 13084 c-392 -29 -730 -104 -1055 -234 -675 -270 -1253 -762
-1628 -1386 -247 -411 -399 -860 -457 -1349 -20 -168 -23 -527 -6 -695 65
-622 288 -1195 656 -1685 218 -290 512 -569 810 -769 322 -216 711 -388 1068
-472 66 -16 116 -33 113 -39 -2 -5 -212 -324 -467 -708 -368 -555 -465 -695
-475 -685 -6 7 -342 532 -745 1166 -403 635 -741 1157 -750 1162 -18 10 -172
11 -2556 10 l-1673 0 0 -330 0 -330 1889 0 1889 0 787 -1131 786 -1130 -88
-135 c-48 -74 -473 -714 -943 -1422 -471 -708 -859 -1293 -863 -1299 -7 -10
73 -13 385 -13 l393 1 745 1159 c410 638 747 1160 750 1160 3 -1 367 -522 810
-1160 443 -638 807 -1159 810 -1159 3 0 367 522 810 1159 443 638 807 1160
810 1160 3 0 340 -522 750 -1160 l745 -1160 392 0 392 0 -323 487 c-177 269
-605 912 -949 1431 -345 519 -627 946 -627 950 0 4 353 513 784 1132 l783
1125 1891 3 1892 2 0 330 0 330 -1677 2 c-923 0 -1685 1 -1693 0 -8 -1 -207
-2 -441 -2 l-426 -1 -748 -1176 c-411 -646 -751 -1171 -755 -1166 -21 22 -918
1376 -926 1397 -3 7 59 27 160 53 442 113 881 333 1251 629 141 113 397 368
510 509 376 471 613 1014 705 1620 27 175 38 599 21 781 -90 944 -564 1795
-1318 2365 -481 365 -1050 590 -1663 659 -101 11 -451 20 -535 14z m-155
-1672 l0 -1087 -62 -45 c-260 -189 -344 -561 -192 -851 42 -79 150 -201 213
-239 l40 -25 1 -1092 0 -1092 -27 4 c-16 3 -71 12 -123 20 -134 22 -342 79
-495 137 -706 264 -1293 831 -1581 1525 -157 376 -223 746 -211 1163 6 192 21
332 53 480 209 976 905 1757 1844 2070 174 58 419 115 513 119 l27 1 0 -1088z
m915 1051 c810 -169 1517 -709 1897 -1448 499 -973 382 -2153 -297 -3005 -188
-236 -458 -476 -715 -635 -306 -189 -715 -336 -1082 -388 l-38 -6 0 1092 0
1093 29 17 c58 34 145 123 193 196 188 288 121 685 -152 893 l-70 53 0 1089 0
1088 58 -7 c31 -3 111 -18 177 -32z m55 -7018 c344 -519 625 -950 624 -958 -1
-14 -1246 -1976 -1254 -1977 -4 0 -906 1413 -1249 1955 -18 28 -85 -79 594
945 297 448 565 852 594 898 30 45 56 82 60 82 3 0 287 -425 631 -945z"/>
<path d="M0 12416 l0 -334 1890 0 1890 0 0 334 0 334 -1890 0 -1890 0 0 -334z"/>
<path d="M10920 12416 l0 -334 1890 0 1890 1 0 333 0 334 -1890 0 -1890 0 0
-334z"/>
<path d="M0 9745 l0 -335 1894 0 1894 0 -2 333 -1 332 -1892 3 -1893 2 0 -335z"/>
<path d="M10910 9745 l0 -335 1895 0 1895 0 0 335 0 335 -1895 0 -1895 0 0
-335z"/>
</g>
</svg>
