<?xml version="1.0" encoding="UTF-8"?>
<!DOCTYPE svg PUBLIC "-//W3C//DTD SVG 1.1//EN" "http://www.w3.org/Graphics/SVG/1.1/DTD/svg11.dtd">
<!-- Creator: CorelDRAW 2020 (64-Bit Evaluation Version) -->
<svg xmlns="http://www.w3.org/2000/svg" xml:space="preserve" width="300mm" height="234.018mm" version="1.1" style="shape-rendering:geometricPrecision; text-rendering:geometricPrecision; image-rendering:optimizeQuality; fill-rule:evenodd; clip-rule:evenodd"
viewBox="0 0 30000 23401.8"
 xmlns:xlink="http://www.w3.org/1999/xlink"
 xmlns:xodm="http://www.corel.com/coreldraw/odm/2003">
 <defs>
  <style type="text/css">
   <![CDATA[
    .str0 {stroke:black;stroke-width:7.62;stroke-miterlimit:22.9256}
    .fil1 {fill:none}
    .fil0 {fill:black}
   ]]>
  </style>
 </defs>
 <g id="Capa_x0020_1">
  <metadata id="CorelCorpID_0Corel-Layer"/>
  <g id="_2704194930736">
   <g>
    <path class="fil0" d="M14314.58 5616.74c-406.26,234.78 -679.63,673.89 -679.63,1176.83 0,502.94 273.37,942.06 679.63,1176.83l0 -2353.66zm1357.2 2353.66c406.26,-234.77 679.63,-673.89 679.63,-1176.83 0,-502.94 -273.37,-942.05 -679.63,-1176.83l0 2353.66zm687.27 5476.92c3096.01,-632.16 5425.28,-3370.94 5425.28,-6653.75 0,-3750.65 -3040.5,-6791.15 -6791.15,-6791.15 -3750.65,0 -6791.15,3040.5 -6791.15,6791.15 0,3750.65 3040.5,6791.15 6791.15,6791.15l2572.63 3881.42 -1206.76 -4018.82zm1926.93 5138.24l3045.11 4733.17 1584.59 0 -3869.62 -5825.97 -760.08 1092.8zm-4.57 -2244.02l-1922.36 -2894.22 1922.36 2894.22zm-2609.63 -15166.99c2805.58,335.27 4980.69,2723.13 4980.69,5619.02 0,2895.89 -2175.11,5283.76 -4980.69,5619.02l0 -11238.04zm-1357.2 11238.04c-2805.58,-335.26 -4980.69,-2723.13 -4980.69,-5619.02 0,-2895.89 2175.11,-5283.75 4980.69,-5619.02l0 11238.04zm0 -11238.04l0 4442.19 0 -4442.19zm0 6795.85l0 4442.19 0 -4442.19zm1357.2 4442.19l0 -4442.19 0 4442.19zm0 -6795.85l0 -4442.19 0 4442.19zm-1357.2 -4442.19c-2805.59,335.27 -4980.69,2723.13 -4980.69,5619.02 0,2895.89 2175.1,5283.76 4980.69,5619.02l0 -11238.04zm1357.2 11238.04c2805.59,-335.26 4980.69,-2723.13 4980.69,-5619.02 0,-2895.89 -2175.1,-5283.75 -4980.69,-5619.02l0 11238.04zm687.27 1034.73c3095.99,-632.16 5425.28,-3370.95 5425.28,-6653.75 0,-3750.65 -3040.5,-6791.15 -6791.15,-6791.15 -3750.65,0 -6791.15,3040.5 -6791.15,6791.15 0,3750.65 3040.5,6791.15 6791.15,6791.15l1365.87 -137.4zm-1365.87 137.4c-3750.65,0 -6791.15,-3040.5 -6791.15,-6791.15 0,-3750.65 3040.5,-6791.15 6791.15,-6791.15 3750.65,0 6791.15,3040.5 6791.15,6791.15 0,3282.8 -2329.29,6021.59 -5425.28,6653.75l-1365.87 137.4zm678.6 -5614.32l0 4442.19 0 -4442.19zm-1357.2 4442.19l0 -4442.19 0 4442.19zm1357.2 -6795.85c406.26,234.79 679.63,673.89 679.63,1176.83 0,502.94 -273.37,942.04 -679.63,1176.83l0 -2353.66zm-1357.2 2353.66c-406.26,-234.79 -679.63,-673.89 -679.63,-1176.83 0,-502.94 273.37,-942.04 679.63,-1176.83l0 2353.66zm1357.2 -6795.85l0 4442.19 0 -4442.19zm-1357.2 4442.19l0 -4442.19 0 4442.19zm7921.99 1855.93l7696.65 0 0 -1358.2 -7696.65 0 0 1358.2zm0 -5432.93l7696.65 0 0 -1358.2 -7696.65 0 0 1358.2zm905.52 9507.66l-1819.98 15.51 -3040.7 4778.63 4860.68 -4794.14zm-5576.28 5918.74l-2581.61 4057.14 8.5 1797.21 3293.28 -4734.93 -720.17 -1119.42zm1480.25 26.62l3190.51 -4587.16 7696.65 0 0 -1358.2 -7696.65 0 -3190.51 5945.36zm3190.51 -15453.02l0 -1358.2 7696.65 0 0 1358.2 -7696.65 0zm0 4074.73l7696.65 0 0 1358.2 -7696.65 0 0 -1358.2zm-905.48 5432.93l8602.13 0 0 1358.2 -7696.65 0 -905.48 -1358.2zm-5659.31 865.19c2805.58,-335.26 4980.69,-2723.13 4980.69,-5619.02 0,-2895.89 -2175.11,-5283.75 -4980.69,-5619.02l0 4442.19c406.26,234.78 679.63,673.89 679.63,1176.83 0,502.94 -273.37,942.06 -679.63,1176.83l0 4442.19zm-2036.83 -5619.02c0,-502.94 273.37,-942.05 679.63,-1176.83l0 -4442.19c-2805.58,335.27 -4980.69,2723.13 -4980.69,5619.02 0,2895.89 2175.11,5283.76 4980.69,5619.02l0 -4442.19c-406.26,-234.77 -679.63,-673.89 -679.63,-1176.83z"/>
    <path id="1" class="fil1 str0" d="M14314.58 5616.74c-406.26,234.78 -679.63,673.89 -679.63,1176.83 0,502.94 273.37,942.06 679.63,1176.83m1357.2 0c406.26,-234.77 679.63,-673.89 679.63,-1176.83 0,-502.94 -273.37,-942.05 -679.63,-1176.83m687.27 7830.58c3096.01,-632.16 5425.28,-3370.94 5425.28,-6653.75 0,-3750.65 -3040.5,-6791.15 -6791.15,-6791.15 -3750.65,0 -6791.15,3040.5 -6791.15,6791.15 0,3750.65 3040.5,6791.15 6791.15,6791.15l2572.63 3881.42m720.17 1119.42l3045.11 4733.17 1584.59 0 -3869.62 -5825.97m-764.65 -1151.22l-1922.36 -2894.22m-687.27 -12272.77c2805.58,335.27 4980.69,2723.13 4980.69,5619.02 0,2895.89 -2175.11,5283.76 -4980.69,5619.02m-1357.2 0c-2805.58,-335.26 -4980.69,-2723.13 -4980.69,-5619.02 0,-2895.89 2175.11,-5283.75 4980.69,-5619.02m0 0l0 4442.19m0 2353.66l0 4442.19m1357.2 0l0 -4442.19m0 -2353.66l0 -4442.19m-1357.2 0c-2805.59,335.27 -4980.69,2723.13 -4980.69,5619.02 0,2895.89 2175.1,5283.76 4980.69,5619.02m1357.2 0c2805.59,-335.26 4980.69,-2723.13 4980.69,-5619.02 0,-2895.89 -2175.1,-5283.75 -4980.69,-5619.02m687.27 12272.77c3095.99,-632.16 5425.28,-3370.95 5425.28,-6653.75 0,-3750.65 -3040.5,-6791.15 -6791.15,-6791.15 -3750.65,0 -6791.15,3040.5 -6791.15,6791.15 0,3750.65 3040.5,6791.15 6791.15,6791.15m0 0c-3750.65,0 -6791.15,-3040.5 -6791.15,-6791.15 0,-3750.65 3040.5,-6791.15 6791.15,-6791.15 3750.65,0 6791.15,3040.5 6791.15,6791.15 0,3282.8 -2329.29,6021.59 -5425.28,6653.75m-687.27 -5476.92l0 4442.19m-1357.2 0l0 -4442.19m1357.2 -2353.66c406.26,234.79 679.63,673.89 679.63,1176.83 0,502.94 -273.37,942.04 -679.63,1176.83m-1357.2 0c-406.26,-234.79 -679.63,-673.89 -679.63,-1176.83 0,-502.94 273.37,-942.04 679.63,-1176.83m1357.2 -4442.19l0 4442.19m-1357.2 0l0 -4442.19m7921.99 6298.12l7696.65 0 0 -1358.2 -7696.65 0 0 1358.2zm0 -5432.93l7696.65 0 0 -1358.2 -7696.65 0 0 1358.2zm905.52 9507.66l-1819.98 15.51 -3040.7 4778.63m-715.6 1124.6l-2581.61 4057.14 8.5 1797.21 3293.28 -4734.93m760.08 -1092.8l3190.51 -4587.16 7696.65 0 0 -1358.2 -7696.65 0m0 -9507.66l0 -1358.2 7696.65 0 0 1358.2 -7696.65 0zm0 4074.73l7696.65 0 0 1358.2 -7696.65 0 0 -1358.2zm-905.48 5432.93l8602.13 0 0 1358.2 -7696.65 0m-6564.79 -493.01c2805.58,-335.26 4980.69,-2723.13 4980.69,-5619.02 0,-2895.89 -2175.11,-5283.75 -4980.69,-5619.02l0 4442.19c406.26,234.78 679.63,673.89 679.63,1176.83 0,502.94 -273.37,942.06 -679.63,1176.83l0 4442.19zm-2036.83 -5619.02c0,-502.94 273.37,-942.05 679.63,-1176.83l0 -4442.19c-2805.58,335.27 -4980.69,2723.13 -4980.69,5619.02 0,2895.89 2175.11,5283.76 4980.69,5619.02l0 -4442.19c-406.26,-234.77 -679.63,-673.89 -679.63,-1176.83z"/>
   </g>
   <g>
    <path class="fil0" d="M15671.78 5616.74c406.26,234.78 679.63,673.89 679.63,1176.83 0,502.94 -273.37,942.06 -679.63,1176.83l0 -2353.66zm-1357.2 2353.66c-406.26,-234.77 -679.63,-673.89 -679.63,-1176.83 0,-502.94 273.37,-942.05 679.63,-1176.83l0 2353.66zm-687.27 5476.92c-3096.01,-632.16 -5425.28,-3370.94 -5425.28,-6653.75 0,-3750.65 3040.5,-6791.15 6791.15,-6791.15 3750.65,0 6791.15,3040.5 6791.15,6791.15 0,3750.65 -3040.5,6791.15 -6791.15,6791.15l-2572.63 3881.42 1206.76 -4018.82zm-1926.93 5138.24l-3045.11 4733.17 -1584.59 0 3869.62 -5825.97 760.08 1092.8zm4.57 -2244.02l1922.36 -2894.22 -1922.36 2894.22zm2609.63 -15166.99c-2805.58,335.27 -4980.69,2723.13 -4980.69,5619.02 0,2895.89 2175.11,5283.76 4980.69,5619.02l0 -11238.04zm1357.2 11238.04c2805.58,-335.26 4980.69,-2723.13 4980.69,-5619.02 0,-2895.89 -2175.11,-5283.75 -4980.69,-5619.02l0 11238.04zm0 -11238.04l0 4442.19 0 -4442.19zm0 6795.85l0 4442.19 0 -4442.19zm-1357.2 4442.19l0 -4442.19 0 4442.19zm0 -6795.85l0 -4442.19 0 4442.19zm1357.2 -4442.19c2805.59,335.27 4980.69,2723.13 4980.69,5619.02 0,2895.89 -2175.1,5283.76 -4980.69,5619.02l0 -11238.04zm-1357.2 11238.04c-2805.59,-335.26 -4980.69,-2723.13 -4980.69,-5619.02 0,-2895.89 2175.1,-5283.75 4980.69,-5619.02l0 11238.04zm-687.27 1034.73c-3095.99,-632.16 -5425.28,-3370.95 -5425.28,-6653.75 0,-3750.65 3040.5,-6791.15 6791.15,-6791.15 3750.65,0 6791.15,3040.5 6791.15,6791.15 0,3750.65 -3040.5,6791.15 -6791.15,6791.15l-1365.87 -137.4zm1365.87 137.4c3750.65,0 6791.15,-3040.5 6791.15,-6791.15 0,-3750.65 -3040.5,-6791.15 -6791.15,-6791.15 -3750.65,0 -6791.15,3040.5 -6791.15,6791.15 0,3282.8 2329.29,6021.59 5425.28,6653.75l1365.87 137.4zm-678.6 -5614.32l0 4442.19 0 -4442.19zm1357.2 4442.19l0 -4442.19 0 4442.19zm-1357.2 -6795.85c-406.26,234.79 -679.63,673.89 -679.63,1176.83 0,502.94 273.37,942.04 679.63,1176.83l0 -2353.66zm1357.2 2353.66c406.26,-234.79 679.63,-673.89 679.63,-1176.83 0,-502.94 -273.37,-942.04 -679.63,-1176.83l0 2353.66zm-1357.2 -6795.85l0 4442.19 0 -4442.19zm1357.2 4442.19l0 -4442.19 0 4442.19zm-7921.99 1855.93l-7696.65 0 0 -1358.2 7696.65 0 0 1358.2zm0 -5432.93l-7696.65 0 0 -1358.2 7696.65 0 0 1358.2zm-905.52 9507.66l1819.98 15.51 3040.7 4778.63 -4860.68 -4794.14zm5576.28 5918.74l2581.61 4057.14 -8.5 1797.21 -3293.28 -4734.93 720.17 -1119.42zm-1480.25 26.62l-3190.51 -4587.16 -7696.65 0 0 -1358.2 7696.65 0 3190.51 5945.36zm-3190.51 -15453.02l0 -1358.2 -7696.65 0 0 1358.2 7696.65 0zm0 4074.73l-7696.65 0 0 1358.2 7696.65 0 0 -1358.2zm905.48 5432.93l-8602.13 0 0 1358.2 7696.65 0 905.48 -1358.2zm5659.31 865.19c-2805.58,-335.26 -4980.69,-2723.13 -4980.69,-5619.02 0,-2895.89 2175.11,-5283.75 4980.69,-5619.02l0 4442.19c-406.26,234.78 -679.63,673.89 -679.63,1176.83 0,502.94 273.37,942.06 679.63,1176.83l0 4442.19zm2036.83 -5619.02c0,-502.94 -273.37,-942.05 -679.63,-1176.83l0 -4442.19c2805.58,335.27 4980.69,2723.13 4980.69,5619.02 0,2895.89 -2175.11,5283.76 -4980.69,5619.02l0 -4442.19c406.26,-234.77 679.63,-673.89 679.63,-1176.83z"/>
    <path id="1" class="fil1 str0" d="M15671.78 5616.74c406.26,234.78 679.63,673.89 679.63,1176.83 0,502.94 -273.37,942.06 -679.63,1176.83m-1357.2 0c-406.26,-234.77 -679.63,-673.89 -679.63,-1176.83 0,-502.94 273.37,-942.05 679.63,-1176.83m-687.27 7830.58c-3096.01,-632.16 -5425.28,-3370.94 -5425.28,-6653.75 0,-3750.65 3040.5,-6791.15 6791.15,-6791.15 3750.65,0 6791.15,3040.5 6791.15,6791.15 0,3750.65 -3040.5,6791.15 -6791.15,6791.15l-2572.63 3881.42m-720.17 1119.42l-3045.11 4733.17 -1584.59 0 3869.62 -5825.97m764.65 -1151.22l1922.36 -2894.22m687.27 -12272.77c-2805.58,335.27 -4980.69,2723.13 -4980.69,5619.02 0,2895.89 2175.11,5283.76 4980.69,5619.02m1357.2 0c2805.58,-335.26 4980.69,-2723.13 4980.69,-5619.02 0,-2895.89 -2175.11,-5283.75 -4980.69,-5619.02m0 0l0 4442.19m0 2353.66l0 4442.19m-1357.2 0l0 -4442.19m0 -2353.66l0 -4442.19m1357.2 0c2805.59,335.27 4980.69,2723.13 4980.69,5619.02 0,2895.89 -2175.1,5283.76 -4980.69,5619.02m-1357.2 0c-2805.59,-335.26 -4980.69,-2723.13 -4980.69,-5619.02 0,-2895.89 2175.1,-5283.75 4980.69,-5619.02m-687.27 12272.77c-3095.99,-632.16 -5425.28,-3370.95 -5425.28,-6653.75 0,-3750.65 3040.5,-6791.15 6791.15,-6791.15 3750.65,0 6791.15,3040.5 6791.15,6791.15 0,3750.65 -3040.5,6791.15 -6791.15,6791.15m0 0c3750.65,0 6791.15,-3040.5 6791.15,-6791.15 0,-3750.65 -3040.5,-6791.15 -6791.15,-6791.15 -3750.65,0 -6791.15,3040.5 -6791.15,6791.15 0,3282.8 2329.29,6021.59 5425.28,6653.75m687.27 -5476.92l0 4442.19m1357.2 0l0 -4442.19m-1357.2 -2353.66c-406.26,234.79 -679.63,673.89 -679.63,1176.83 0,502.94 273.37,942.04 679.63,1176.83m1357.2 0c406.26,-234.79 679.63,-673.89 679.63,-1176.83 0,-502.94 -273.37,-942.04 -679.63,-1176.83m-1357.2 -4442.19l0 4442.19m1357.2 0l0 -4442.19m-7921.99 6298.12l-7696.65 0 0 -1358.2 7696.65 0 0 1358.2zm0 -5432.93l-7696.65 0 0 -1358.2 7696.65 0 0 1358.2zm-905.52 9507.66l1819.98 15.51 3040.7 4778.63m715.6 1124.6l2581.61 4057.14 -8.5 1797.21 -3293.28 -4734.93m-760.08 -1092.8l-3190.51 -4587.16 -7696.65 0 0 -1358.2 7696.65 0m0 -9507.66l0 -1358.2 -7696.65 0 0 1358.2 7696.65 0zm0 4074.73l-7696.65 0 0 1358.2 7696.65 0 0 -1358.2zm905.48 5432.93l-8602.13 0 0 1358.2 7696.65 0m6564.79 -493.01c-2805.58,-335.26 -4980.69,-2723.13 -4980.69,-5619.02 0,-2895.89 2175.11,-5283.75 4980.69,-5619.02l0 4442.19c-406.26,234.78 -679.63,673.89 -679.63,1176.83 0,502.94 273.37,942.06 679.63,1176.83l0 4442.19zm2036.83 -5619.02c0,-502.94 -273.37,-942.05 -679.63,-1176.83l0 -4442.19c2805.58,335.27 4980.69,2723.13 4980.69,5619.02 0,2895.89 -2175.11,5283.76 -4980.69,5619.02l0 -4442.19c406.26,-234.77 679.63,-673.89 679.63,-1176.83z"/>
   </g>
   <path class="fil0 str0" d="M23142.09 11547.4l6791.13 0 0 1358.2 -7696.65 0 -3190.51 4587.16 3869.62 5825.97 -1584.59 0 -3045.11 -4733.17 -3293.28 4734.93 -8.5 -1797.21 2581.61 -4057.14 -2572.63 -3881.42c-3750.65,0 -6791.15,-3040.5 -6791.15,-6791.15 0,-3750.65 3040.5,-6791.15 6791.15,-6791.15 3750.65,0 6791.15,3040.5 6791.15,6791.15 0,3282.81 -2329.27,6021.59 -5425.28,6653.75l1922.36 2894.22 3040.7 -4778.63 1819.98 -15.51zm-7470.31 865.19c2805.58,-335.26 4980.69,-2723.13 4980.69,-5619.02 0,-2895.89 -2175.11,-5283.75 -4980.69,-5619.02l0 4442.19c406.26,234.78 679.63,673.89 679.63,1176.83 0,502.94 -273.37,942.06 -679.63,1176.83l0 4442.19zm-2036.83 -5619.02c0,-502.94 273.37,-942.05 679.63,-1176.83l0 -4442.19c-2805.58,335.27 -4980.69,2723.13 -4980.69,5619.02 0,2895.89 2175.11,5283.76 4980.69,5619.02l0 -4442.19c-406.26,-234.77 -679.63,-673.89 -679.63,-1176.83z"/>
   <path class="fil0 str0" d="M6844.27 11547.4l-6791.13 0 0 1358.2 7696.65 0 3190.51 4587.16 -3869.62 5825.97 1584.59 0 3045.11 -4733.17 3293.28 4734.93 8.5 -1797.21 -2581.61 -4057.14 2572.63 -3881.42c3750.65,0 6791.15,-3040.5 6791.15,-6791.15 0,-3750.65 -3040.5,-6791.15 -6791.15,-6791.15 -3750.65,0 -6791.15,3040.5 -6791.15,6791.15 0,3282.81 2329.27,6021.59 5425.28,6653.75l-1922.36 2894.22 -3040.7 -4778.63 -1819.98 -15.51zm7470.31 865.19c-2805.58,-335.26 -4980.69,-2723.13 -4980.69,-5619.02 0,-2895.89 2175.11,-5283.75 4980.69,-5619.02l0 4442.19c-406.26,234.78 -679.63,673.89 -679.63,1176.83 0,502.94 273.37,942.06 679.63,1176.83l0 4442.19zm2036.83 -5619.02c0,-502.94 -273.37,-942.05 -679.63,-1176.83l0 -4442.19c2805.58,335.27 4980.69,2723.13 4980.69,5619.02 0,2895.89 -2175.11,5283.76 -4980.69,5619.02l0 -4442.19c406.26,-234.77 679.63,-673.89 679.63,-1176.83z"/>
   <polygon class="fil0 str0" points="29933.22,7472.67 22236.57,7472.67 22236.57,6114.47 29933.22,6114.47 "/>
   <polygon class="fil0 str0" points="53.14,7472.67 7749.79,7472.67 7749.79,6114.47 53.14,6114.47 "/>
   <polygon class="fil0 str0" points="29933.22,2039.74 22236.57,2039.74 22236.57,681.54 29933.22,681.54 "/>
   <polygon class="fil0 str0" points="53.14,2039.74 7749.79,2039.74 7749.79,681.54 53.14,681.54 "/>
   <polygon class="fil0 str0" points="22236.56,6114.47 29933.22,6114.47 29933.22,7472.67 22236.56,7472.67 "/>
   <polygon class="fil0 str0" points="7749.8,6114.47 53.14,6114.47 53.14,7472.67 7749.8,7472.67 "/>
  </g>
 </g>
</svg>
